<svg width="540" height="541" viewBox="0 0 540 541" fill="none" xmlns="http://www.w3.org/2000/svg">
<path d="M249.154 475.92C251.992 451.047 287.862 451.047 290.713 475.92C291.754 485.031 291.963 515.123 290.414 523.661C288.865 532.199 281.915 536.754 275.134 540.19H264.734C257.953 536.754 250.938 531.796 249.454 523.661C247.892 515.123 248.113 485.031 249.154 475.92ZM120.289 396.345C137.274 393.859 149.196 411.847 140.801 427.296C138.275 431.956 110.175 460.368 105.464 463.375C86.5785 475.427 65.4415 456.112 75.7236 436.237C77.9624 431.903 104.916 404.61 109.563 401.265C112.271 399.312 117.048 396.813 120.275 396.345H120.289ZM413.736 396.345C419.281 395.525 425.007 397.582 429.55 400.692C434.092 403.803 459.55 429.209 462.661 433.804C475.794 453.249 455.607 475.427 435.212 463.856C431.073 461.514 403.506 434.115 400.513 429.742C391.467 416.532 397.558 398.727 413.749 396.345H413.736ZM257.979 125.074C374.806 115.508 454.916 242.63 395.123 344.021C338.649 439.762 199.032 438.812 143.756 342.394C90.8745 250.153 152.711 133.691 257.979 125.074ZM361.049 320.319C401.605 246.404 342.619 158.863 259.294 166.62H259.281C188.647 173.206 146.204 248.838 175.332 313.421C210.226 390.785 320.193 394.768 361.049 320.319ZM475.729 249.321C484.841 248.28 514.931 248.071 523.47 249.62C532.008 251.169 536.563 258.119 539.999 264.9V275.3C536.563 282.081 531.604 289.096 523.47 290.58C514.932 292.142 484.841 291.921 475.729 290.88C450.857 288.043 450.857 252.172 475.729 249.321ZM16.3877 249.632C25.2386 248.018 53.2866 248.383 62.8789 249.281C88.9745 251.741 88.6882 286.518 66.4189 290.579C57.5685 292.193 29.5202 291.829 19.9277 290.931C-6.16824 288.471 -5.88173 253.693 16.3877 249.632ZM91.7734 73.0391C97.2919 72.4925 102.55 74.7702 106.976 77.959C111.778 81.4212 136.909 106.617 139.878 111.278C152.334 130.814 131.913 152.316 111.896 140.551C107.483 137.961 79.5255 110.133 76.6621 105.669C67.968 92.0288 75.6868 74.6406 91.7607 73.0527L91.7734 73.0391ZM443.619 73C460.956 70.6182 472.344 89.5427 463.676 104.836C461.344 108.951 433.052 137.348 428.782 140.056C409.142 152.577 387.796 131.986 399.51 112.072C402.204 107.491 428.118 81.3814 432.895 77.9453C435.537 76.0451 440.495 73.4297 443.619 73ZM265.686 0.347656C277.894 -1.85167 289.309 6.63474 290.701 18.8691C291.677 27.4597 291.912 60.0094 290.142 67.6504C285.144 89.1779 251.85 87.942 249.155 64.3193C248.179 55.7423 247.945 23.1778 249.715 15.5371C251.264 8.83414 258.891 1.57111 265.686 0.347656Z" fill="white"/>
</svg>
