<svg width="32" height="32" viewBox="0 0 32 32" fill="none" xmlns="http://www.w3.org/2000/svg">
<rect width="32" height="32" fill="#000DFF"/>
<path d="M17.0039 6.09367C16.8671 7.29085 15.1404 7.29089 15.003 6.09367C14.9528 5.65504 14.9431 4.20609 15.0176 3.79484C15.0922 3.38388 15.4266 3.16437 15.753 2.99894H16.2539C16.5804 3.16439 16.9178 3.40317 16.9893 3.79484C17.0645 4.20598 17.0541 5.65501 17.0039 6.09367ZM23.209 9.9257C22.3912 10.0454 21.8165 9.17933 22.2207 8.43547C22.3426 8.21085 23.6951 6.84291 23.9219 6.69816C24.8312 6.11797 25.8486 7.0479 25.3535 8.0048C25.2458 8.2134 23.9492 9.52642 23.7246 9.6884C23.5944 9.78235 23.3644 9.90305 23.209 9.9257ZM9.08108 9.9257C8.81424 9.96517 8.53802 9.86639 8.31936 9.71672C8.10066 9.56694 6.87441 8.34321 6.72464 8.12199C6.09262 7.18579 7.065 6.11765 8.0469 6.67473C8.24626 6.78769 9.5713 8.10549 9.71682 8.3173C10.1523 8.95335 9.8596 9.81097 9.0801 9.9257H9.08108ZM16.5782 22.9862C10.9534 23.4467 7.09685 17.326 9.97561 12.4443C12.6947 7.83444 19.4167 7.87997 22.0782 12.5224C24.6241 16.9636 21.6465 22.5714 16.5782 22.9862ZM16.5147 20.9853H16.5157C19.9165 20.6682 21.9601 17.0265 20.5576 13.9169C18.8775 10.1924 13.5834 10.0008 11.6162 13.5849C9.66363 17.1437 12.503 21.3585 16.5147 20.9853ZM6.09378 17.0038C5.65501 17.054 4.20601 17.0647 3.79495 16.9902C3.38404 16.9155 3.16445 16.5803 2.99905 16.2538V15.7529C3.16443 15.4265 3.40355 15.0891 3.79495 15.0175C4.20599 14.9423 5.65494 14.9527 6.09378 15.0029C7.29132 15.1395 7.29132 16.8666 6.09378 17.0038ZM28.211 16.9902C27.7847 17.0678 26.4345 17.05 25.9727 17.0068C24.7164 16.8883 24.73 15.2144 25.8018 15.0185C26.2279 14.9408 27.5792 14.9586 28.041 15.0019C29.297 15.1207 29.283 16.7947 28.211 16.9902ZM24.4824 25.496C24.2532 25.4905 24.036 25.39 23.8496 25.2558C23.6185 25.0891 22.4091 23.8761 22.2657 23.6513C21.6659 22.7106 22.6495 21.6756 23.6133 22.2421C23.8274 22.3686 25.1715 23.7058 25.3096 23.9208C25.7282 24.5776 25.356 25.4157 24.5821 25.4921L24.4824 25.496ZM7.63967 25.4941C6.80518 25.6084 6.25754 24.6971 6.67483 23.9609C6.78851 23.7615 8.14894 22.396 8.35452 22.2655C9.30005 21.6627 10.3273 22.6535 9.7637 23.6122C9.63398 23.8328 8.38626 25.0903 8.15628 25.2558C8.02904 25.3473 7.79004 25.4734 7.63967 25.4941ZM16.209 28.9911C15.6214 29.0968 15.0721 28.6883 15.0049 28.0995C14.9579 27.6859 14.947 26.1178 15.0323 25.7499C15.2733 24.714 16.8752 24.7738 17.0049 25.9111C17.0519 26.3243 17.0638 27.8919 16.9785 28.2597C16.904 28.5824 16.5361 28.9322 16.209 28.9911Z" fill="white"/>
</svg>
