<svg width="26" height="26" viewBox="0 0 26 26" fill="none" xmlns="http://www.w3.org/2000/svg">
<path d="M14.0039 3.09562C13.8671 4.2928 12.1404 4.29284 12.003 3.09562C11.9528 2.65699 11.9431 1.20804 12.0176 0.796796C12.0922 0.385835 12.4266 0.16632 12.753 0.000897579H13.2539C13.5804 0.16634 13.9178 0.405124 13.9893 0.796796C14.0645 1.20793 14.0541 2.65696 14.0039 3.09562ZM20.209 6.92766C19.3912 7.04735 18.8165 6.18128 19.2207 5.43742C19.3426 5.2128 20.6951 3.84486 20.9219 3.70012C21.8312 3.11992 22.8486 4.04985 22.3535 5.00676C22.2458 5.21535 20.9492 6.52837 20.7246 6.69035C20.5944 6.7843 20.3644 6.905 20.209 6.92766ZM6.08108 6.92766C5.81424 6.96712 5.53802 6.86834 5.31936 6.71867C5.10066 6.5689 3.87441 5.34516 3.72464 5.12394C3.09262 4.18774 4.065 3.11961 5.0469 3.67668C5.24626 3.78965 6.5713 5.10745 6.71682 5.31926C7.15233 5.95531 6.8596 6.81292 6.0801 6.92766H6.08108ZM13.5782 19.9882C7.95342 20.4486 4.09685 14.3279 6.97561 9.44621C9.69468 4.83639 16.4167 4.88193 19.0782 9.52434C21.6241 13.9656 18.6465 19.5733 13.5782 19.9882ZM13.5147 17.9872H13.5157C16.9165 17.6701 18.9601 14.0284 17.5576 10.9189C15.8775 7.19435 10.5834 7.00274 8.61624 10.5868C6.66363 14.1456 9.50301 18.3604 13.5147 17.9872ZM3.09378 14.0058C2.65501 14.0559 1.20601 14.0667 0.794948 13.9921C0.384036 13.9174 0.164451 13.5822 -0.000950563 13.2558V12.7548C0.164435 12.4285 0.403555 12.091 0.794948 12.0195C1.20599 11.9443 2.65494 11.9547 3.09378 12.0048C4.29132 12.1414 4.29132 13.8685 3.09378 14.0058ZM25.211 13.9921C24.7847 14.0698 23.4345 14.0519 22.9727 14.0087C21.7164 13.8903 21.73 12.2163 22.8018 12.0204C23.2279 11.9427 24.5792 11.9606 25.041 12.0038C26.297 12.1226 26.283 13.7966 25.211 13.9921ZM21.4824 22.498C21.2532 22.4925 21.036 22.392 20.8496 22.2577C20.6185 22.0911 19.4091 20.8781 19.2657 20.6532C18.6659 19.7126 19.6495 18.6775 20.6133 19.2441C20.8274 19.3706 22.1715 20.7077 22.3096 20.9228C22.7282 21.5795 22.356 22.4176 21.5821 22.4941L21.4824 22.498ZM4.63967 22.496C3.80518 22.6104 3.25754 21.699 3.67483 20.9628C3.78851 20.7634 5.14894 19.398 5.35452 19.2675C6.30005 18.6647 7.32732 19.6555 6.7637 20.6142C6.63398 20.8348 5.38626 22.0923 5.15628 22.2577C5.02904 22.3492 4.79004 22.4753 4.63967 22.496ZM13.209 25.9931C12.6214 26.0988 12.0721 25.6903 12.0049 25.1015C11.9579 24.6879 11.947 23.1197 12.0323 22.7519C12.2733 21.7159 13.8752 21.7758 14.0049 22.913C14.0519 23.3263 14.0638 24.8938 13.9785 25.2616C13.904 25.5844 13.5361 25.9342 13.209 25.9931Z" fill="#DAA628"/>
</svg>
