<svg width="32" height="32" viewBox="0 0 32 32" fill="none" xmlns="http://www.w3.org/2000/svg">
<rect width="32" height="32" fill="#DAA628"/>
<path d="M17.0039 6.09375C16.867 7.29093 15.1404 7.29096 15.0029 6.09375C14.9528 5.65512 14.943 4.20616 15.0176 3.79492C15.0921 3.38396 15.4265 3.16445 15.7529 2.99902H16.2539C16.5804 3.16447 16.9178 3.40325 16.9893 3.79492C17.0645 4.20605 17.054 5.65509 17.0039 6.09375ZM23.209 9.92578C22.3912 10.0455 21.8165 9.17941 22.2207 8.43555C22.3426 8.21093 23.6951 6.84299 23.9219 6.69824C24.8311 6.11805 25.8486 7.04798 25.3535 8.00488C25.2458 8.21348 23.9492 9.52649 23.7246 9.68848C23.5943 9.78243 23.3644 9.90313 23.209 9.92578ZM9.08105 9.92578C8.81421 9.96524 8.53799 9.86646 8.31934 9.7168C8.10063 9.56702 6.87438 8.34329 6.72461 8.12207C6.0926 7.18587 7.06498 6.11773 8.04688 6.6748C8.24624 6.78777 9.57127 8.10557 9.7168 8.31738C10.1523 8.95343 9.85957 9.81105 9.08008 9.92578H9.08105ZM16.5781 22.9863C10.9534 23.4467 7.09682 17.3261 9.97559 12.4443C12.6947 7.83452 19.4167 7.88005 22.0781 12.5225C24.6241 16.9637 21.6465 22.5715 16.5781 22.9863ZM16.5146 20.9854H16.5156C19.9165 20.6683 21.9601 17.0266 20.5576 13.917C18.8774 10.1925 13.5834 10.0009 11.6162 13.585C9.6636 17.1437 12.503 21.3586 16.5146 20.9854ZM6.09375 17.0039C5.65498 17.054 4.20598 17.0648 3.79492 16.9902C3.38401 16.9156 3.16442 16.5803 2.99902 16.2539V15.7529C3.16441 15.4266 3.40353 15.0891 3.79492 15.0176C4.20596 14.9424 5.65491 14.9528 6.09375 15.0029C7.29129 15.1395 7.29129 16.8667 6.09375 17.0039ZM28.2109 16.9902C27.7847 17.0679 26.4345 17.0501 25.9727 17.0068C24.7164 16.8884 24.73 15.2144 25.8018 15.0186C26.2279 14.9408 27.5792 14.9587 28.041 15.002C29.297 15.1208 29.283 16.7947 28.2109 16.9902ZM24.4824 25.4961C24.2532 25.4906 24.036 25.3901 23.8496 25.2559C23.6184 25.0892 22.4091 23.8762 22.2656 23.6514C21.6659 22.7107 22.6495 21.6757 23.6133 22.2422C23.8273 22.3687 25.1715 23.7058 25.3096 23.9209C25.7282 24.5777 25.356 25.4157 24.582 25.4922L24.4824 25.4961ZM7.63965 25.4941C6.80516 25.6085 6.25751 24.6972 6.6748 23.9609C6.78848 23.7616 8.14891 22.3961 8.35449 22.2656C9.30003 21.6628 10.3273 22.6536 9.76367 23.6123C9.63395 23.8329 8.38623 25.0904 8.15625 25.2559C8.02902 25.3473 7.79002 25.4735 7.63965 25.4941ZM16.209 28.9912C15.6214 29.0969 15.0721 28.6884 15.0049 28.0996C14.9579 27.686 14.947 26.1179 15.0322 25.75C15.2733 24.7141 16.8752 24.7739 17.0049 25.9111C17.0519 26.3244 17.0637 27.892 16.9785 28.2598C16.9039 28.5825 16.5361 28.9323 16.209 28.9912Z" fill="white"/>
</svg>
